<svg width="32" height="20" viewBox="0 0 32 20" fill="none" xmlns="http://www.w3.org/2000/svg">
<path d="M21.243 2.087C26.79 4.025 24.277 3.147 29.495 4.979C28.007 7.732 27.377 10.888 27.558 14.007C23.676 15.272 19.84 16.689 16.016 18.123C12.167 16.714 8.31898 15.284 4.42498 14.003C4.64298 10.888 3.97998 7.748 2.50898 5C5.28198 4.019 8.04298 2.985 10.857 2.116C12.917 5.412 18.056 5.686 20.689 2.738L21.243 2.087ZM11.126 1.003C12.403 3.154 15.018 4.433 17.503 3.671C19.303 3.119 20.051 2.157 20.929 1.011C24.263 2.136 27.575 3.323 30.888 4.505C28.943 7.447 28.103 11.073 28.576 14.572C24.369 16.031 20.207 17.625 15.988 19.026L3.42898 14.539C3.93998 11.061 3.02498 7.452 1.12098 4.518C4.44998 3.323 7.77198 2.124 11.126 1.003ZM20.64 0.15C19.593 1.72 18.308 3.175 16.009 3.191C13.966 3.205 12.42 1.749 11.415 0.158C7.59498 1.444 3.80398 2.816 0.000976562 4.147C2.23098 7.315 3.23298 11.131 2.64998 14.996L15.988 19.85H16.107C20.462 18.165 24.863 16.591 29.293 15.124C29.083 12.207 29.186 9.158 30.591 6.516C30.608 6.487 30.64 6.43 30.657 6.401C31.098 5.639 31.551 4.881 32 4.122L20.64 0.15Z" fill="#444444"/>
</svg>
