<svg width="32" height="19" viewBox="0 0 32 19" fill="none" xmlns="http://www.w3.org/2000/svg">
<path d="M14.397 0.0022967C15.186 0.0792967 14.849 0.0292968 15.41 0.126297C21.809 1.1903 27.008 5.4543 31.973 9.3303C26.799 13.3603 21.326 18.0353 14.524 18.6073C11.01 19.0103 7.947 16.4553 6.851 13.2553C5.303 15.6893 2.684 17.2633 0 18.1823V0.646297C2.773 1.1863 4.941 3.1963 6.956 5.0343C7.992 2.4803 10.308 0.466297 13.073 0.0662968C13.662 -0.0187032 13.802 0.0022967 14.397 0.0022967ZM13.844 1.1953C9.975 1.3553 8.051 5.4333 7.487 8.7913C10.517 6.5103 14.322 7.7923 17.441 9.1863C21.374 11.1043 25.952 10.4683 29.942 9.0893C25.163 5.8333 20.254 2.1903 14.419 1.2153C14.098 1.1933 14.29 1.2033 13.845 1.1953H13.844Z" fill="#444444"/>
</svg>
